<?xml version="1.0" encoding="UTF-8" standalone="no"?>
<!-- Created with Inkscape (http://www.inkscape.org/) -->

<svg
   version="1.1"
   id="svg217"
   width="1000"
   height="180"
   viewBox="0 0 1000 180"
   xmlns="http://www.w3.org/2000/svg"
   xmlns:svg="http://www.w3.org/2000/svg">
  <defs
     id="defs221">
    <clipPath
       clipPathUnits="userSpaceOnUse"
       id="clipPath231">
      <path
         d="M 0,0 H 612 V 792 H 0 Z"
         id="path229" />
    </clipPath>
    <clipPath
       clipPathUnits="userSpaceOnUse"
       id="clipPath239">
      <path
         d="M -32.3199,520.85 H 612.94 V -7.00137 H -32.3199 Z"
         id="path237" />
    </clipPath>
    <clipPath
       clipPathUnits="userSpaceOnUse"
       id="clipPath243">
      <path
         d="M -32768,32767 H 32767 V -32768 H -32768 Z"
         id="path241" />
    </clipPath>
    <linearGradient
       x1="0"
       y1="0"
       x2="1"
       y2="0"
       gradientUnits="userSpaceOnUse"
       gradientTransform="matrix(0,335.8685,-335.8685,0,-18.000977,117.00099)"
       spreadMethod="pad"
       id="linearGradient249">
      <stop
         style="stop-opacity:1;stop-color:#ffffff"
         offset="0"
         id="stop245" />
      <stop
         style="stop-opacity:0;stop-color:#ffffff"
         offset="1"
         id="stop247" />
    </linearGradient>
    <mask
       maskUnits="userSpaceOnUse"
       x="0"
       y="0"
       width="1"
       height="1"
       id="mask251">
      <g
         id="g261">
        <g
           clip-path="url(#clipPath243)"
           id="g259">
          <g
             id="g257">
            <g
               id="g255">
              <path
                 d="M -32768,32767 H 32767 V -32768 H -32768 Z"
                 style="fill:url(#linearGradient249);stroke:none"
                 id="path253" />
            </g>
          </g>
        </g>
      </g>
    </mask>
    <clipPath
       clipPathUnits="userSpaceOnUse"
       id="clipPath265">
      <path
         d="M -32.3199,520.85 H 612.94 V -7.00137 H -32.3199 Z"
         id="path263" />
    </clipPath>
    <clipPath
       clipPathUnits="userSpaceOnUse"
       id="clipPath269">
      <path
         d="M 611.94,513.679 H -1.148 V -1.175 H 611.94 Z"
         id="path267" />
    </clipPath>
    <clipPath
       clipPathUnits="userSpaceOnUse"
       id="clipPath307">
      <path
         d="M 611.94,258.079 H 612 v 234.356 h -0.06 z"
         id="path305" />
    </clipPath>
    <clipPath
       clipPathUnits="userSpaceOnUse"
       id="clipPath679">
      <path
         d="M 314.913,167.22 H 572.039 V 298.87 H 314.913 Z"
         id="path677" />
    </clipPath>
    <clipPath
       clipPathUnits="userSpaceOnUse"
       id="clipPath691">
      <path
         d="M 314.913,302.44 H 572.039 V 434.091 H 314.913 Z"
         id="path689" />
    </clipPath>
    <clipPath
       clipPathUnits="userSpaceOnUse"
       id="clipPath703">
      <path
         d="M 314.913,32 H 572.039 V 163.65 H 314.913 Z"
         id="path701" />
    </clipPath>
    <clipPath
       clipPathUnits="userSpaceOnUse"
       id="clipPath717">
      <path
         d="M 0,0 H 612 V 792 H 0 Z"
         id="path715" />
    </clipPath>
    <clipPath
       clipPathUnits="userSpaceOnUse"
       id="clipPath737">
      <path
         d="M 0,0 H 612 V 792 H 0 Z"
         id="path735" />
    </clipPath>
    <clipPath
       clipPathUnits="userSpaceOnUse"
       id="clipPath757">
      <path
         d="M 0,0 H 612 V 792 H 0 Z"
         id="path755" />
    </clipPath>
    <clipPath
       clipPathUnits="userSpaceOnUse"
       id="clipPath777">
      <path
         d="M 0,0 H 612 V 792 H 0 Z"
         id="path775" />
    </clipPath>
    <clipPath
       clipPathUnits="userSpaceOnUse"
       id="clipPath801">
      <path
         d="M 0,0 H 612 V 792 H 0 Z"
         id="path799" />
    </clipPath>
    <clipPath
       clipPathUnits="userSpaceOnUse"
       id="clipPath821">
      <path
         d="M 0,0 H 612 V 792 H 0 Z"
         id="path819" />
    </clipPath>
    <clipPath
       clipPathUnits="userSpaceOnUse"
       id="clipPath853">
      <path
         d="M 0,0 H 612 V 792 H 0 Z"
         id="path851" />
    </clipPath>
    <clipPath
       clipPathUnits="userSpaceOnUse"
       id="clipPath875">
      <path
         d="M 0,0 H 612 V 792 H 0 Z"
         id="path873" />
    </clipPath>
    <clipPath
       clipPathUnits="userSpaceOnUse"
       id="clipPath891">
      <path
         d="M 0,0 H 612 V 792 H 0 Z"
         id="path889" />
    </clipPath>
    <clipPath
       clipPathUnits="userSpaceOnUse"
       id="clipPath927">
      <path
         d="M 0,0 H 612 V 792 H 0 Z"
         id="path925" />
    </clipPath>
    <clipPath
       clipPathUnits="userSpaceOnUse"
       id="clipPath943">
      <path
         d="M 0,0 H 612 V 792 H 0 Z"
         id="path941" />
    </clipPath>
    <clipPath
       clipPathUnits="userSpaceOnUse"
       id="clipPath1178">
      <path
         d="m -424.3195,-698.844 h 612 v 792 h -612 z"
         id="path1180"
         style="stroke-width:0.999998" />
    </clipPath>
    <clipPath
       clipPathUnits="userSpaceOnUse"
       id="clipPath1362">
      <path
         d="m -412.8331,-689.5647 h 612 v 792 h -612 z"
         id="path1364"
         style="stroke-width:0.999998" />
    </clipPath>
    <clipPath
       clipPathUnits="userSpaceOnUse"
       id="clipPath1366">
      <path
         d="m -406.0568,-689.5647 h 612 v 792 h -612 z"
         id="path1368"
         style="stroke-width:0.999998" />
    </clipPath>
    <clipPath
       clipPathUnits="userSpaceOnUse"
       id="clipPath1370">
      <path
         d="m -395.8477,-689.5647 h 612 v 792 h -612 z"
         id="path1372"
         style="stroke-width:0.999998" />
    </clipPath>
  </defs>
  <g
     id="g1648"
     style="display:inline"
     transform="matrix(2.3427763,0,0,2.3427763,1.2653531e-5,0.07908244)">
    <path
       id="path997"
       style="display:inline;fill:#595955;fill-opacity:1;fill-rule:nonzero;stroke:none;stroke-width:1.33333"
       d="m 399.46226,61.168003 1.67066,5.969333 1.672,-5.969333 h 2.59733 l -2.96933,8.681333 -0.0693,0.193334 v 6.438666 h -2.45067 V 70.04267 l -0.0787,-0.193334 -2.96934,-8.681333 z m -11.2864,0 h 2.45066 l 2.32134,8.884 v -8.884 h 2.268 v 15.313333 h -2.45067 l -2.23333,-8.602666 v 8.602666 h -2.356 z m -2.44654,9.8828 0.79734,5.430667 h -2.47734 l -0.47466,-3.249334 h -2.50267 l -0.48667,3.249334 h -2.46666 l 0.79733,-5.413334 1.73067,-9.899999 h 3.36 z m -2.47733,0 -0.93467,-6.377333 -0.93466,6.377333 z m -13.1816,-9.8828 h 3.568 c 2.17733,0 3.264,1.073334 3.264,3.222667 v 2.296 c 0,1.584 -0.78133,2.606666 -2.34667,3.064 -0.37466,0.112 -0.92,0.168 -1.636,0.168 h -0.39866 v 6.562666 h -2.45067 z m 2.45067,2.172 v 4.389333 h 0.564 c 0.34,0 0.57333,-0.02 0.7,-0.06133 0.44533,-0.158667 0.66666,-0.486667 0.66666,-0.981333 v -2.296 c 0,-0.7 -0.35466,-1.050667 -1.06533,-1.050667 z m -10.17734,8.320133 2.84934,-10.491999 h 2.45066 V 76.48147 h -2.34666 v -8.593334 l -2.096,8.593334 h -1.66267 l -2.156,-8.593334 v 8.593334 h -2.37333 V 61.168137 h 2.45066 z m -7.58853,1.880267 c 0,2.142667 -1.17467,3.218667 -3.52533,3.224 -2.34267,0 -3.51334,-1.074667 -3.51334,-3.224 V 64.17107 c 0,-2.144 1.17067,-3.216 3.51334,-3.216 2.35066,0 3.52533,1.072 3.52533,3.216 z m -2.45067,-9.369333 c 0,-0.690667 -0.35466,-1.034667 -1.06533,-1.034667 h -0.016 c -0.70533,0 -1.05733,0.344 -1.05733,1.034667 v 9.369333 c 0,0.690667 0.35466,1.033333 1.064,1.033333 0.71733,0 1.07466,-0.342666 1.07466,-1.033333 z m -6.5844,9.369333 c 0,2.142667 -1.17466,3.218667 -3.52533,3.224 -2.34267,0 -3.51333,-1.074667 -3.51333,-3.224 V 64.17107 c 0,-2.144 1.17066,-3.216 3.51333,-3.216 2.35067,0 3.52533,1.072 3.52533,3.216 v 2.057333 h -2.45066 V 64.17107 c 0,-0.690667 -0.356,-1.034667 -1.06534,-1.034667 h -0.016 c -0.70533,0 -1.05733,0.344 -1.05733,1.034667 v 9.369333 c 0,0.690667 0.35467,1.033333 1.064,1.033333 0.71733,0 1.07467,-0.342666 1.07467,-1.033333 V 71.48307 h 2.45066 z m -13.61213,0 c 0,2.142667 -1.17467,3.218667 -3.524,3.224 -2.344,0 -3.51467,-1.074667 -3.51467,-3.224 V 64.17107 c 0,-2.144 1.17067,-3.216 3.51467,-3.216 2.34933,0 3.524,1.072 3.524,3.216 v 2.057333 h -2.45067 V 64.17107 c 0,-0.690667 -0.35466,-1.034667 -1.06533,-1.034667 h -0.016 c -0.70533,0 -1.05733,0.344 -1.05733,1.034667 v 9.369333 c 0,0.690667 0.35466,1.033333 1.06533,1.033333 0.716,0 1.07333,-0.342666 1.07333,-1.033333 V 71.48307 h 2.45067 z m -11.7876,-12.3724 h 2.45067 v 15.313333 h -2.45067 z m -9.26187,0 h 3.568 c 2.17734,0 3.264,1.073334 3.264,3.222667 v 2.296 c 0,1.348 -0.64266,2.237333 -1.93066,2.668 l 2.75333,7.126666 h -2.68267 l -2.20933,-6.737333 -0.312,0.044 v 6.693333 h -2.45067 z m 2.45067,2.172 v 4.389333 h 0.564 c 0.34,0 0.57333,-0.02 0.7,-0.06133 0.44533,-0.158667 0.66667,-0.486667 0.66667,-0.981333 v -2.296 c 0,-0.7 -0.35334,-1.050667 -1.06534,-1.050667 z m -4.18493,-2.172 v 2.172 h -2.29467 v 13.141333 h -2.45067 V 63.340003 h -2.29466 v -2.172 z m -8.5168,12.3724 c 0,2.142667 -1.17467,3.218667 -3.52534,3.224 -2.34266,0 -3.51333,-1.074667 -3.51333,-3.224 V 64.17107 c 0,-2.144 1.17067,-3.216 3.51333,-3.216 2.35067,0 3.52534,1.072 3.52534,3.216 v 2.057333 h -2.45067 V 64.17107 c 0,-0.690667 -0.35467,-1.034667 -1.06533,-1.034667 h -0.0173 c -0.704,0 -1.056,0.344 -1.056,1.034667 v 9.369333 c 0,0.690667 0.35467,1.033333 1.064,1.033333 0.716,0 1.07467,-0.342666 1.07467,-1.033333 V 71.48307 h 2.45067 z m -15.21894,-12.3724 h 6.35734 v 2.172 h -3.90667 v 4.389333 h 3.36 v 2.189334 h -3.36 v 4.382666 h 3.90667 v 2.18 h -6.35734 z m -8.0052,15.313867 V 61.168537 h 2.45067 v 13.131999 h 3.90667 v 2.181334 z m -8.35146,-15.313867 h 6.35733 v 2.172 h -3.90667 v 4.389333 h 3.36 v 2.189334 h -3.36 v 4.382666 h 3.90667 v 2.18 h -6.35733 z m -12.9284,0 h 6.35733 v 2.172 h -3.90666 v 4.389333 h 3.36 v 2.189334 h -3.36 v 4.382666 h 3.90666 v 2.18 h -6.35733 z m -9.29307,3.002667 c 0,-2.142667 1.17067,-3.216 3.51467,-3.216 2.34933,0 3.524,1.073333 3.524,3.216 v 2.057333 h -2.45067 V 64.17067 c 0,-0.690667 -0.35466,-1.033333 -1.064,-1.033333 h -0.0173 c -0.704,0 -1.05733,0.342666 -1.05733,1.033333 v 1.385333 c 0,0.684 0.76533,1.52 2.296,2.509333 1.528,0.982667 2.29333,2.162667 2.29333,3.541334 v 1.933333 c 0,2.150667 -1.172,3.224 -3.51467,3.224 -2.34933,-0.0053 -3.524,-1.08 -3.524,-3.224 V 71.48267 h 2.44934 v 2.057333 c 0,0.690667 0.35733,1.034667 1.07466,1.034667 0.70934,0 1.064,-0.344 1.064,-1.034667 v -1.748 c 0,-0.741333 -0.764,-1.608 -2.29333,-2.596 -1.53067,-0.984 -2.29467,-2.178667 -2.29467,-3.586666 z m -2.1692,9.369733 c 0,2.142667 -1.17466,3.218667 -3.524,3.224 -2.34266,0 -3.51466,-1.074667 -3.51466,-3.224 V 61.193737 h 2.44933 v 12.346666 c 0,0.690667 0.356,1.033333 1.06533,1.033333 0.716,0 1.07334,-0.342666 1.07334,-1.033333 V 61.193737 h 2.45066 z m -9.20706,0 c 0,2.142667 -1.17467,3.218667 -3.52534,3.224 -2.34266,0 -3.51333,-1.074667 -3.51333,-3.224 V 64.17107 c 0,-2.144 1.17067,-3.216 3.51333,-3.216 2.35067,0 3.52534,1.072 3.52534,3.216 z m -2.45067,-9.369333 c 0,-0.690667 -0.35467,-1.034667 -1.06533,-1.034667 h -0.016 c -0.70534,0 -1.05734,0.344 -1.05734,1.034667 v 9.369333 c 0,0.690667 0.35467,1.033333 1.064,1.033333 0.716,0 1.07467,-0.342666 1.07467,-1.033333 z m -13.884,-3.003067 h 2.45067 v 6.561333 h 2.13866 v -6.561333 h 2.45067 v 15.313333 h -2.45067 V 69.91867 h -2.13866 v 6.562666 h -2.45067 z m -2.25387,12.3724 c 0,2.142667 -1.17466,3.218667 -3.52533,3.224 -2.34267,0 -3.51333,-1.074667 -3.51333,-3.224 V 64.17107 c 0,-2.144 1.17066,-3.216 3.51333,-3.216 2.35067,0 3.52533,1.072 3.52533,3.216 v 2.057333 h -2.45066 V 64.17107 c 0,-0.690667 -0.35467,-1.034667 -1.06534,-1.034667 h -0.016 c -0.70533,0 -1.05733,0.344 -1.05733,1.034667 v 9.369333 c 0,0.690667 0.35467,1.033333 1.064,1.033333 0.71733,0 1.07467,-0.342666 1.07467,-1.033333 V 69.94707 h -1.23867 v -2.182667 h 3.68933 z m -16.33586,-12.3724 h 2.45066 l 2.32134,8.884 v -8.884 h 2.268 v 15.313333 h -2.45067 l -2.23333,-8.602666 v 8.602666 h -2.356 z m -4.92,0 h 2.45066 v 15.313333 h -2.45066 z m -1.77934,0 v 2.172 h -2.29466 v 13.141333 h -2.45067 V 63.340003 h -2.29467 v -2.172 z m -15.64066,3.002667 c 0,-2.142667 1.17066,-3.216 3.51466,-3.216 2.34934,0 3.524,1.073333 3.524,3.216 v 2.057333 h -2.45066 V 64.17067 c 0,-0.690667 -0.35467,-1.033333 -1.064,-1.033333 h -0.0173 c -0.704,0 -1.05733,0.342666 -1.05733,1.033333 v 1.385333 c 0,0.684 0.76533,1.52 2.296,2.509333 1.528,0.982667 2.29333,2.162667 2.29333,3.541334 v 1.933333 c 0,2.150667 -1.172,3.224 -3.51466,3.224 -2.34934,-0.0053 -3.524,-1.08 -3.524,-3.224 V 71.48267 h 2.44933 v 2.057333 c 0,0.690667 0.35867,1.034667 1.07467,1.034667 0.70933,0 1.064,-0.344 1.064,-1.034667 v -1.748 c 0,-0.741333 -0.764,-1.608 -2.29334,-2.596 -1.53066,-0.984 -2.29466,-2.178667 -2.29466,-3.586666 z m -8.17947,-3.002667 h 6.356 v 2.172 h -3.90533 v 4.389333 h 3.36 v 2.189334 h -3.36 v 4.382666 h 3.90533 v 2.18 h -6.356 z m -5.85827,11.799467 1.732,-11.8 h 2.476 l -0.796,5.432 -1.72266,9.882666 h -3.36134 l -1.272,-7.905333 -1.264,7.905333 h -3.36 l -1.732,-9.9 -0.796,-5.414666 h 2.46667 l 1.732,11.8 1.732,-11.8 h 2.43333 z m -16.33853,-1.916667 0.79733,5.430667 h -2.47733 l -0.47467,-3.249334 h -2.50266 l -0.48534,3.249334 h -2.468 l 0.79734,-5.413334 1.73066,-9.899999 h 3.36 z m -2.476,0 -0.936,-6.377333 -0.93467,6.377333 z" />
    <path
       d="m 408.27732,52.030004 c 0,0.96 -60.172,1.736 -134.40533,1.736 -74.23066,0 -134.408,-0.776 -134.408,-1.736 0,-0.949333 60.17734,-1.725333 134.408,-1.725333 74.23333,0 134.40533,0.776 134.40533,1.725333"
       style="display:inline;fill:#5e7e95;fill-opacity:1;fill-rule:nonzero;stroke:none;stroke-width:1.33333"
       id="path721" />
    <path
       id="path833"
       style="display:inline;fill:#595955;fill-opacity:1;fill-rule:nonzero;stroke:none;stroke-width:1.33333"
       d="m 418.44132,4.8239999e-6 h 1.99333 L 422.64265,3.5533381 424.85199,4.8239999e-6 h 1.992 V 8.4026713 h -1.836 V 2.9173381 l -2.36534,3.5893332 h -0.048 l -2.34133,-3.5546665 v 5.4506665 h -1.812 z M 412.62385,1.7044048 h -2.55733 V 4.0482399e-4 h 6.96267 V 1.7044048 h -2.55734 v 6.6973331 h -1.848 z m -19.72279,3.3099999 h 7.272 c 4.43733,0.012 6.65599,2.4426666 6.65599,7.2906663 v 5.208 c 0,3.048 -1.312,5.054667 -3.93733,6.02 l 5.61467,16.117333 h -5.472 l -4.50133,-15.234666 -0.63734,0.088 v 15.146666 h -4.99466 z m 4.99466,4.9239999 v 9.9226664 h 1.148 c 0.69467,0 1.17067,-0.04667 1.43067,-0.141333 0.90533,-0.364 1.35867,-1.101334 1.35867,-2.206667 v -5.208 c 0,-1.577333 -0.724,-2.3666664 -2.172,-2.3666664 z M 376.23559,5.0144047 h 12.95733 v 4.9239999 h -7.96266 v 9.9226664 h 6.85066 v 4.942667 h -6.85066 v 9.921333 h 7.96266 v 4.925333 h -12.95733 z m -3.17707,0 v 4.9239999 h -4.67866 V 39.650404 h -4.996 V 9.9384046 h -4.67867 V 5.0144047 Z m -31.52986,6.7265333 c 0,-4.8493333 2.38933,-7.2733333 7.168,-7.2733333 4.79066,0 7.18533,2.424 7.18533,7.2733333 v 4.658666 h -4.996 v -4.658666 c 0,-1.554667 -0.724,-2.3360001 -2.172,-2.3493334 h -0.036 c -1.436,0 -2.15333,0.7840004 -2.15333,2.3493334 v 3.14 c 0,1.544 1.56,3.433333 4.67866,5.668 3.11867,2.224 4.67867,4.889333 4.67867,7.997333 v 4.378666 c 0,4.86 -2.38933,7.289333 -7.168,7.289333 -4.78933,-0.01067 -7.18533,-2.441333 -7.18533,-7.289333 v -4.66 h 4.996 v 4.66 c 0,1.565334 0.73066,2.346667 2.18933,2.346667 1.448,0 2.172,-0.781333 2.172,-2.346667 v -3.954666 c 0,-1.672 -1.56,-3.625333 -4.67867,-5.862667 -3.11866,-2.224 -4.67866,-4.929333 -4.67866,-8.12 z M 323.47012,5.0144047 h 7.696 c 4.43734,0.012 6.656,2.4426666 6.656,7.2906663 v 5.208 c 0,2.272 -0.912,3.877333 -2.736,4.818667 1.824,0.942666 2.736,2.548 2.736,4.821333 v 5.222666 c 0,4.838667 -2.32533,7.264 -6.97333,7.274667 h -7.37867 z m 4.99467,4.9239999 v 9.9226664 h 1.572 c 0.69333,0 1.17067,-0.04667 1.42933,-0.141333 0.90667,-0.364 1.36,-1.101334 1.36,-2.206667 v -5.208 c 0,-1.577333 -0.724,-2.3666664 -2.17066,-2.3666664 z m 0,14.8653334 v 9.921333 h 2.19067 c 1.44666,0 2.17066,-0.782667 2.17066,-2.349334 v -5.222666 c 0,-1.108 -0.45333,-1.836 -1.36,-2.190667 -0.25866,-0.105333 -0.736,-0.158666 -1.42933,-0.158666 z M 306.80466,5.0144047 h 12.95733 v 4.9239999 h -7.96267 v 9.9226664 h 6.85067 v 4.942667 h -6.85067 v 9.921333 h 7.96267 v 4.925333 H 306.80466 Z M 295.22412,31.707071 298.75346,5.013738 h 5.05066 l -1.624,12.286666 -3.51333,22.349333 h -6.85067 l -2.59466,-17.882666 -2.57734,17.882666 h -6.84933 l -3.53067,-22.383999 -1.62533,-12.252 h 5.032 l 3.53067,26.693333 3.532,-26.693333 h 4.96 z m -38.80746,5.5352 c -2.708,2.407999 -5.34667,3.611999 -7.912,3.611999 -1.44267,0 -2.76133,-0.238666 -3.95467,-0.716 -1.19733,-0.478666 -2.22533,-1.146666 -3.08666,-2.006666 -0.86134,-0.861333 -1.52934,-1.912 -2.00534,-3.153333 -0.47333,-1.242667 -0.71066,-2.628 -0.71066,-4.157334 0,-1.069333 0.096,-1.986666 0.28933,-2.752 0.192,-0.764 0.46533,-1.442666 0.81733,-2.034666 0.352,-0.593333 0.77334,-1.137333 1.26534,-1.634667 0.492,-0.496 1.05466,-1.030666 1.688,-1.605333 l 0.47466,-0.458667 c -1.05466,-1.261333 -1.872,-2.550666 -2.452,-3.870666 -0.58,-1.317334 -0.87066,-2.685334 -0.87066,-4.098667 0,-1.489333 0.29066,-2.722666 0.87066,-3.698666 0.58,-0.9733338 1.3,-1.7573337 2.16267,-2.3493337 0.86133,-0.5933333 1.82,-1.012 2.87467,-1.2626667 1.05466,-0.2466666 2.05733,-0.3719999 3.00666,-0.3719999 5.27467,0 7.98267,2.5413332 8.12267,7.6253333 l -5.74933,2.237333 c -0.24534,-2.790667 -1.16,-4.185333 -2.74267,-4.185333 -1.65333,0 -2.47867,0.973333 -2.47867,2.922666 0,1.148 1.49334,3.345334 4.48267,6.593334 0.10533,0.153333 0.58933,0.697333 1.45067,1.634666 0.86133,0.936 2.13733,2.284 3.824,4.041333 0.28133,-0.764 0.528,-1.662666 0.73866,-2.694666 0.21067,-1.032 0.35067,-2.216 0.42267,-3.554667 h 5.80133 v 2.18 c 0,1.718667 -0.20133,3.325333 -0.60533,4.814667 -0.40667,1.490666 -0.96,2.906666 -1.66133,4.242666 l 6.17066,7.625333 h -7.80666 z m -7.54267,-2.694667 c 1.44134,0 2.636,-0.745333 3.58667,-2.236 l -5.64267,-6.134666 -0.84533,0.746666 c -0.73867,0.916 -1.108,1.833333 -1.108,2.750667 0,0.650666 0.124,1.262666 0.36933,1.834666 0.24534,0.573334 0.55467,1.089334 0.924,1.548 0.368,0.458667 0.78934,0.822667 1.26534,1.090667 0.47466,0.266667 0.95733,0.4 1.45066,0.4 M 213.29946,5.0144047 h 12.95733 v 4.9239999 h -7.96266 v 9.9226664 h 6.85066 v 4.942667 h -6.85066 v 9.921333 h 7.96266 v 4.925333 h -12.95733 z m -18.94253,0 h 4.996 l 4.73066,20.0879993 V 5.0144047 h 4.62534 V 39.650404 h -4.996 l -4.55467,-19.453333 v 19.453333 h -4.80133 z m -4.2372,27.9101323 c 0,4.849334 -2.396,7.278667 -7.18534,7.290667 -4.77866,0 -7.16666,-2.429333 -7.16666,-7.290667 V 11.740538 c 0,-4.848 2.388,-7.2733333 7.16666,-7.2733333 4.78934,0 7.18534,2.4253333 7.18534,7.2733333 z m -4.996,-21.183999 c 0,-1.554667 -0.724,-2.3360001 -2.17067,-2.3480001 h -0.036 c -1.43467,0 -2.15333,0.7826671 -2.15333,2.3480001 v 21.183999 c 0,1.565334 0.72266,2.348 2.17066,2.348 1.45867,0 2.18934,-0.782666 2.18934,-2.348 z M 172.94279,5.0144047 v 4.9239999 h -4.67866 V 39.650404 h -4.996 V 9.9384046 h -4.67734 V 5.0144047 Z m -31.5288,6.7265333 c 0,-4.8493333 2.388,-7.2733333 7.16667,-7.2733333 4.78933,0 7.18533,2.424 7.18533,7.2733333 v 4.658666 h -4.996 v -4.658666 c 0,-1.554667 -0.724,-2.3360001 -2.17066,-2.3493334 h -0.0373 c -1.43466,0 -2.15333,0.7840004 -2.15333,2.3493334 v 3.14 c 0,1.544 1.56,3.433333 4.67867,5.668 3.11866,2.224 4.67866,4.889333 4.67866,7.997333 v 4.378666 c 0,4.86 -2.38933,7.289333 -7.16666,7.289333 -4.792,-0.01067 -7.18534,-2.441333 -7.18534,-7.289333 v -4.66 h 4.99467 v 4.66 c 0,1.565334 0.72933,2.346667 2.19067,2.346667 1.44666,0 2.17066,-0.781333 2.17066,-2.346667 v -3.954666 c 0,-1.672 -1.55866,-3.625333 -4.67866,-5.862667 -3.11867,-2.224 -4.67734,-4.929333 -4.67734,-8.12 z" />
    <path
       id="path813"
       style="display:inline;fill:#5e7e95;fill-opacity:1;fill-rule:nonzero;stroke:none;stroke-width:1.33333"
       d="m 106.97413,59.198003 7.272,-54.9626649 h 10.396 l -3.34533,25.3013329 -7.236,46.021332 H 99.959463 l -5.344,-36.826666 -5.309333,36.826666 h -14.1 L 67.932797,29.462004 64.59013,4.2353381 h 10.356 L 82.219463,59.198003 89.488796,4.2353381 h 10.217333 z m -51.4064,-3.086 c -2.989333,3.022667 -5.902666,4.530667 -8.738666,4.530667 -1.588,0 -3.049333,-0.301333 -4.366667,-0.9 -1.32,-0.601333 -2.456,-1.436 -3.408,-2.517333 -0.952,-1.078667 -1.685333,-2.396 -2.210666,-3.953334 -0.526667,-1.558666 -0.788,-3.297333 -0.788,-5.213333 0,-1.342666 0.105333,-2.494666 0.317333,-3.453333 0.214667,-0.956 0.516,-1.809333 0.905334,-2.553333 0.387999,-0.741334 0.851999,-1.425334 1.397333,-2.046667 0.542666,-0.625333 1.166666,-1.297333 1.865333,-2.016 l 0.52,-0.576 c -1.162667,-1.58 -2.062667,-3.198666 -2.706667,-4.852 -0.641333,-1.656 -0.958666,-3.366666 -0.958666,-5.141333 0,-1.872 0.317333,-3.416 0.958666,-4.64 0.644,-1.222666 1.438667,-2.201333 2.389334,-2.948 0.950666,-0.744 2.010666,-1.269333 3.173333,-1.58 1.168,-0.312 2.274667,-0.469333 3.321333,-0.469333 5.826667,0 8.814667,3.190667 8.969333,9.565333 l -6.347999,2.802667 c -0.272,-3.497334 -1.284,-5.249333 -3.030667,-5.249333 -1.825333,0 -2.737333,1.224 -2.737333,3.670666 0,1.436 1.652,4.193333 4.952,8.268 0.116,0.190667 0.649333,0.874667 1.601333,2.050667 0.952,1.174666 2.361333,2.862666 4.225333,5.066666 0.308,-0.957333 0.582667,-2.085333 0.816,-3.378667 0.233333,-1.293333 0.386667,-2.779999 0.462667,-4.455999 h 6.408 v 2.730666 c 0,2.16 -0.225334,4.169333 -0.668,6.04 -0.449334,1.870667 -1.061334,3.644 -1.837334,5.322667 l 6.817333,9.561333 H 58.246397 Z M 47.238397,52.73067 c 1.593334,0 2.913334,-0.933333 3.961333,-2.804 l -6.233333,-7.694666 -0.932,0.936 c -0.814666,1.149333 -1.224,2.301333 -1.224,3.453333 0,0.812 0.136,1.58 0.409334,2.297333 0.269333,0.721334 0.612,1.369334 1.02,1.942667 0.408,0.574667 0.870666,1.032 1.397333,1.366667 0.522667,0.334666 1.056,0.502666 1.601333,0.502666 M -1.5588901e-6,18.086004 C -1.5588901e-6,8.1020046 4.9173317,3.1100047 14.755998,3.1100047 c 9.866666,0 14.793333,4.9919999 14.793333,14.9759993 v 9.597333 h -10.284 v -9.597333 c 0,-3.197333 -1.490666,-4.813333 -4.472,-4.837333 h -0.072 c -2.954666,0 -4.434666,1.614667 -4.434666,4.837333 v 6.469334 c 0,3.175999 3.210666,7.065333 9.633333,11.669333 6.425333,4.581333 9.629333,10.067999 9.629333,16.467999 v 9.014667 c 0,10.007999 -4.916,15.013333 -14.756,15.013333 C 4.930665,76.69667 -1.5588901e-6,71.691336 -1.5588901e-6,61.707337 v -9.596 H 10.286665 v 9.596 c 0,3.225333 1.505333,4.835999 4.506666,4.835999 2.981334,0 4.472,-1.610666 4.472,-4.835999 v -8.144 c 0,-3.441333 -3.210666,-7.462667 -9.6306661,-12.065333 C 3.210665,36.916671 -1.5588901e-6,31.343337 -1.5588901e-6,24.774004 Z" />
  </g>
</svg>
