<svg height="164.64639" viewBox="0 0 43.95661 11.906242" width="607.362239" xmlns="http://www.w3.org/2000/svg" xmlns:xlink="http://www.w3.org/1999/xlink"><clipPath id="a"><path d="m156 30.746094h24.52344v32.996094h-24.52344zm0 0"/></clipPath><symbol id="b" overflow="visible"/><symbol id="c" overflow="visible"/><g transform="translate(-201.82088 -51.969245)"><use fill="#fff" height="100%" transform="matrix(.35277778 0 0 .35277778 -33.866667 40.883324)" width="100%" x="335.5564" xlink:href="#b" y="401.42099"/><use fill="#fff" height="100%" transform="matrix(.35277778 0 0 .35277778 -33.866667 40.883324)" width="100%" x="493.8364" xlink:href="#b" y="454.401"/><path d="m202.8048 57.305008v2.31786c.36104.03032.55121.04272.56775.04272 1.05282 0 1.57923-.420302 1.57923-1.254015 0-.766189-.56362-1.147906-1.68396-1.147906-.113 0-.26872.01378-.46302.04134m0 3.075781v2.397786h-.85163v-6.231489c.64216-.02756 1.02939-.04134 1.16169-.04134 1.80385 0 2.70784.604959 2.70784 1.814877 0 1.400086-.79788 2.102886-2.38952 2.102886-.0978 0-.3073-.01516-.62838-.04272"/><path d="m208.16812 58.811203c-.36518 0-.66559.114378-.91364.348644-.23013.221864-.36242.500228-.39274.826823h2.53284c0-.326595-.10336-.596691-.30731-.817177-.226-.237022-.53192-.35829-.91915-.35829m1.96508 1.758377h-3.28937c0 .537435.14469.946712.43821 1.237478.26045.250803.59118.377583.99632.377583.4644 0 .85163-.136426 1.16031-.403765l.34176.578776c-.12678.125401-.31695.230132-.57602.319705-.32384.122645-.68627.179144-1.08039.179144-.57877 0-1.06522-.191547-1.46485-.580154-.44924-.427192-.66973-1.003211-.66973-1.72806 0-.752408.23014-1.354611.68627-1.807986.4079-.407899.89296-.607715 1.45245-.607715.65181 0 1.16306.184658 1.53375.54846.35554.348643.53744.81442.53744 1.394574 0 .175011-.0234.343132-.0662.49196"/><path d="m211.3004 58.875971h-.53605v-.642166h.53605v-.953602l.80478-.308681v1.262283h1.25677v.642166h-1.25677v2.250337c0 .38585.062.654568.19292.813042.12678.163987.33624.245291.62425.245291.20809 0 .42168-.0565.64217-.162609l.11989.70969c-.33624.08406-.70142.126779-1.10105.126779-.36243 0-.66697-.129535-.91227-.39963-.24942-.264584-.37069-.599447-.37069-1.008724zm0 0"/><path d="m216.8911 58.994482c-.17776-.122645-.35415-.183279-.53054-.183279-.28526 0-.5333.132292-.74828.395497-.21497.263205-.32384.578776-.32384.950847v2.621028h-.80339v-4.546148h.80339v.708312c.29628-.540191.7345-.806153 1.31465-.806153.1447 0 .35002.02618.62563.07717zm0 0"/><path d="m218.31462 60.484142c0 1.145149.40376 1.715657 1.20991 1.715657.37759 0 .67387-.155718.88608-.461643.2136-.305924.32246-.720714.32246-1.254014 0-1.12448-.40238-1.688097-1.20854-1.688097-.36793 0-.66007.14745-.88056.44924-.21773.300413-.32935.713824-.32935 1.238857m-.85439 0c0-.701422.18604-1.266417.56638-1.701877.38171-.432705.87505-.647679 1.49792-.647679.65182 0 1.16169.206706 1.52274.62563.35967.412033.54019.989431.54019 1.723926 0 .735872-.18466 1.317404-.55535 1.737706-.36794.427192-.87092.636653-1.50758.636653-.65043 0-1.15755-.209461-1.52135-.640787-.36242-.42857-.54295-1.005968-.54295-1.733572"/><path d="m224.85479 57.090034c-.16675-.05788-.31971-.08682-.46165-.08682-.24529 0-.44924.09508-.61047.283876-.15847.184657-.2384.417545-.2384.705555 0 .07579.006.155719.0179.239779h.91778v.675239h-.91778v3.870909h-.81028v-3.870909h-.65733v-.675239h.66422c0-.585666.13918-1.041797.42719-1.373904.28525-.333485.66421-.497472 1.13413-.497472.23564 0 .48644.04272.75792.128158zm0 0"/><path d="m228.0794 60.555799c-.2577-.06477-.4396-.09922-.54295-.09922-.4079 0-.74414.104731-1.00459.314192-.25632.206706-.38999.451997-.38999.741385 0 .465777.28113.701422.84474.701422.41066 0 .77584-.191548 1.09279-.580154zm.0758 1.690854c-.32522.407899-.82407.611848-1.48966.611848-.35691 0-.67111-.126779-.93569-.383094-.26182-.261827-.39136-.581532-.39136-.968761 0-.463021.19981-.851628.60358-1.168576.4079-.316949.92742-.47818 1.55305-.47818.17363 0 .36931.03583.58429.113 0-.741385-.33073-1.112077-.99081-1.112077-.50988 0-.89711.133669-1.16858.401009l-.34038-.673861c.15021-.128158.36243-.232888.63528-.321083.27423-.09371.52917-.132292.78135-.132292.6587 0 1.14239.147451 1.43867.453375.29628.2949.44924.775836.44924 1.43316v1.634353c0 .402387.11713.668349.35415.799262v.403765c-.32659 0-.5705-.04823-.73173-.141938-.16399-.09371-.28112-.250802-.3514-.46991"/><path d="m233.56675 58.587961-.40101.562239c-.0854-.07855-.22876-.158474-.4396-.232888-.21222-.07028-.41754-.106109-.61874-.106109-.44097 0-.79513.155718-1.05282.460265-.25907.311437-.39136.733116-.39136 1.270551 0 .534679.13367.9412.39411 1.220942.26321.278364.62839.42168 1.09555.42168.36104 0 .72898-.143316 1.09692-.42168l.31695.676617c-.43271.282498-.97014.418923-1.61369.418923-.62149 0-1.12999-.206705-1.53376-.624251-.40789-.416167-.61047-.979785-.61047-1.692231 0-.724848.2136-1.310514.6339-1.751486.42444-.43546 1.00597-.655947 1.74046-.655947.23703 0 .4961.04685.77308.147451.27699.09784.48094.197059.61048.305924"/><g clip-path="url(#a)" transform="matrix(.35277779 0 0 .35277779 181.96059 41.256374)"><path d="m169.02734 31.546875c0 6.738281 11.34375 12.8125 11.34375 21.570313 0 5.726562-4.52734 10.078125-11.01172 10.4375 0 0-.57421.03906-1.04296.03906-.46094 0-1.01172-.03906-1.01172-.03906-6.29297-.46875-11.01563-4.710938-11.01563-10.4375 0-8.757813 11.36328-14.832032 11.36328-21.570313 0-.835937 1.375-.921875 1.375 0" fill="#856e4a"/></g><path d="m240.9861 63.626069c-2.22415-.163987-3.83921-1.692231-3.83921-3.631131 0-1.628841 1.11483-2.973807 2.18694-4.276053.93293-1.134125 1.82039-2.202105 1.82039-3.332096 0-.118511.1006-.179145.19982-.179145.0482 0 .0965.01653.12953.04134.0345.03583.0551.07993.0551.137804 0 1.129991.88057 2.197971 1.81488 3.332096 1.07487 1.302246 2.1897 2.647212 2.1897 4.276053 0 2.007802-1.57785 3.501595-3.83646 3.631131l-.36793.0124zm.0661-11.23928c0 1.091406-.87368 2.146984-1.79696 3.265951-1.0859 1.316026-2.21038 2.677528-2.21038 4.342198 0 1.991265 1.65503 3.563607 3.93292 3.731728l.36105.01653.37345-.01653c2.31372-.129536 3.93292-1.666049 3.93292-3.731728 0-1.66467-1.12861-3.026172-2.21037-4.342198-.92605-1.118967-1.79421-2.174545-1.79421-3.265951 0-.111621-.0496-.176389-.0909-.216352-.0537-.0441-.12127-.0689-.19568-.0689-.14745 0-.30179.101975-.30179.285254"/><path d="m240.47209 56.573269c.22325 0 .73174-.0083 1.44557 0 .30868.0055.62838.0083.93844.03858.64492.06615 1.2113.504362 1.48139 1.063846.27699.558105.17915 1.429025-.17226 1.926497-.43545.624252-.90261.853006-1.48276.943956-.38723.06063-.72347.04548-1.14378.04548-.24115 1.171332-.46302 2.237934-.46302 2.237934l-1.77766-.0028 1.03628-4.645367 1.65503.0028-.226 1.325673c.47955 0 .78823-.37207.81993-.853006.011-.227376.003-.577398-.22049-.713824-.15847-.101974-.91226-.0689-1.08727-.0689h-.81718c-.40376-.0028-.62149-.176389-.83509-.497472-.14056-.220486-.30041-.497472-.37207-.795128.40514-.0028 1.05558-.0083 1.22094-.0083" fill="#fff"/><path d="m239.5433 56.631147 1.15479-.0083h1.21957c.30454.0055.62425.0083.93293.04134.59944.06063 1.16995.461643 1.44556 1.033529.25769.530545.18466 1.36977-.1695 1.872754-.39549.55535-.81166.826823-1.45521.926042-.30317.04961-.5774.04685-.89159.04134l-.28663-.0014-.006.04134s-.43546 2.124935-.452 2.200728c-.0786 0-1.55305-.0041-1.67018-.0041.0262-.119889.99081-4.463466 1.00321-4.539258.0786 0 1.45245.0014 1.5627.0014-.0193.110243-.22876 1.32705-.22876 1.32705h.0593c.48093 0 .8406-.373448.8723-.901237.0207-.398253-.0565-.646299-.24529-.766189-.12816-.07855-.55811-.08268-.99908-.07441l-.11438.0028h-.81718c-.39687 0-.59669-.186036-.79099-.475424-.12402-.191547-.2701-.440972-.35002-.717958zm.92879-.108865-.92879.0069-.36105.0028.0179.06339c.0758.314193.24667.599447.38447.810287.20257.311436.43133.518142.87368.518142h.93155c.22324-.0041.82269-.01378.94809.06201.12953.08268.19568.261827.19568.542947 0 .03996 0 .08406-.005.125401-.0234.458887-.30593.768946-.70142.797884.0152-.117133.22324-1.317404.22324-1.317404l-1.76114-.0028-1.05144 4.745964h1.88103s.44648-2.15663.45888-2.237934h.19844c.32108.0069.59807.0069.91226-.0441.67386-.104731 1.11208-.383095 1.52273-.967384.37345-.530544.45062-1.413867.17639-1.974728-.29214-.599447-.89297-1.028017-1.52824-1.091407-.31144-.03032-.63252-.03721-.9412-.03996zm0 0"/><use fill="#fff" height="100%" transform="matrix(.35277779 0 0 .35277779 181.96059 41.256374)" width="100%" x="531.97223" xlink:href="#c" y="275.49969"/></g></svg>