<?xml version="1.0" encoding="UTF-8" standalone="no"?>
<!-- Generator: Adobe Illustrator 12.0.0, SVG Export Plug-In . SVG Version: 6.00 Build 51448)  -->

<svg
   xmlns:dc="http://purl.org/dc/elements/1.1/"
   xmlns:cc="http://creativecommons.org/ns#"
   xmlns:rdf="http://www.w3.org/1999/02/22-rdf-syntax-ns#"
   xmlns:svg="http://www.w3.org/2000/svg"
   xmlns="http://www.w3.org/2000/svg"
   xmlns:sodipodi="http://sodipodi.sourceforge.net/DTD/sodipodi-0.dtd"
   xmlns:inkscape="http://www.inkscape.org/namespaces/inkscape"
   version="1.1"
   id="Layer_1"
   width="470.03476"
   height="215.64301"
   viewBox="0 0 470.03476 215.64301"
   overflow="visible"
   enable-background="new 0 0 496 260"
   xml:space="preserve"
   sodipodi:docname="SNC-Lavalin_logo.svg"
   style="overflow:visible"
   inkscape:version="0.92.2 (5c3e80d, 2017-08-06)"><metadata
     id="metadata47"><rdf:RDF><cc:Work
         rdf:about=""><dc:format>image/svg+xml</dc:format><dc:type
           rdf:resource="http://purl.org/dc/dcmitype/StillImage" /></cc:Work></rdf:RDF></metadata><defs
     id="defs45" /><sodipodi:namedview
     pagecolor="#ffffff"
     bordercolor="#666666"
     borderopacity="1"
     objecttolerance="10"
     gridtolerance="10"
     guidetolerance="10"
     inkscape:pageopacity="0"
     inkscape:pageshadow="2"
     inkscape:window-width="1920"
     inkscape:window-height="1017"
     id="namedview43"
     showgrid="false"
     inkscape:zoom="1.7278496"
     inkscape:cx="388.12969"
     inkscape:cy="51.821313"
     inkscape:window-x="-8"
     inkscape:window-y="-8"
     inkscape:window-maximized="1"
     inkscape:current-layer="Layer_1" /><g
     id="g40"
     transform="translate(-12.576,-22.179)"><path
       d="m 419.826,229.432 c 0,1.896 1.795,2.492 2.811,2.492 h 2.305 c 1.891,0 1.891,3.271 0,3.271 h -22.225 c -1.889,0 -1.889,-3.271 0,-3.271 h 2.303 c 1.02,0 2.813,-0.596 2.813,-2.492 v -34.529 c 0,-1.888 -1.793,-2.496 -2.813,-2.496 h -2.303 c -1.889,0 -1.889,-3.268 0,-3.268 h 22.225 c 1.891,0 1.891,3.268 0,3.268 h -2.305 c -1.016,0 -2.811,0.608 -2.811,2.496 z"
       id="path8"
       inkscape:connector-curvature="0" /><path
       d="m 340.209,229.432 c 1.014,2.492 -0.688,2.492 -1.705,2.492 h -2.307 c -1.889,0 -1.889,3.271 0,3.271 h 22.229 c 1.887,0 1.887,-3.271 0,-3.271 h -1.568 c -1.016,0 -2.26,0 -3.367,-2.492 0,0 -17.381,-39.79 -17.754,-40.665 -0.363,-0.872 -0.871,-0.731 -1.244,-0.731 h -2.443 c -0.875,0 -1.15,0.731 -1.33,1.012 -0.189,0.276 -17.711,40.385 -17.711,40.385 -1.291,2.492 -2.074,2.492 -3.09,2.492 h -2.305 c -1.891,0 -1.891,3.271 0,3.271 h 16.045 c 1.889,0 1.889,-3.271 0,-3.271 h -4.145 c -1.018,0 -3.002,0.367 -1.895,-2.492 l 11.344,-27.479 z"
       id="path10"
       inkscape:connector-curvature="0" /><polygon
       points="336.109,219.387 334.746,216.105 323.129,216.105 321.771,219.387 "
       id="polygon12" /><path
       d="m 288.639,194.902 c -1.016,-2.496 0.684,-2.496 1.703,-2.496 h 2.305 c 1.887,0 1.887,-3.268 0,-3.268 h -22.225 c -1.893,0 -1.893,3.268 0,3.268 h 1.566 c 1.016,0 2.26,0 3.363,2.496 0,0 17.383,39.421 17.75,40.292 0.371,0.877 0.879,0.739 1.248,0.739 h 1.707 c 0.547,0 0.672,0.168 1.213,-0.73 0.176,-0.276 17.828,-40.301 17.828,-40.301 1.291,-2.496 2.074,-2.496 3.092,-2.496 h 2.303 c 1.891,0 1.891,-3.268 0,-3.268 h -13.828 c -1.893,0 -1.893,3.268 0,3.268 h 1.932 c 1.014,0 2.998,-0.363 1.891,2.496 l -11.338,26.375 z"
       id="path14"
       inkscape:connector-curvature="0" /><path
       d="m 263.672,229.432 c 1.014,2.492 -0.686,2.492 -1.703,2.492 h -2.313 c -1.881,0 -1.881,3.271 0,3.271 h 22.23 c 1.891,0 1.891,-3.271 0,-3.271 h -1.568 c -1.012,0 -2.26,0 -3.367,-2.492 0,0 -17.381,-39.79 -17.744,-40.665 -0.373,-0.872 -0.881,-0.731 -1.25,-0.731 h -2.447 c -0.381,0 -0.713,-0.044 -1.248,0.841 -0.174,0.289 -17.792,40.556 -17.792,40.556 -1.292,2.492 -2.075,2.492 -3.083,2.492 h -2.312 c -1.892,0 -1.892,3.271 0,3.271 h 16.045 c 1.892,0 1.892,-3.271 0,-3.271 h -4.147 c -1.015,0 -2.994,0.367 -1.892,-2.492 l 11.347,-27.479 z"
       id="path16"
       inkscape:connector-curvature="0" /><polygon
       points="259.57,219.387 258.213,216.105 246.591,216.105 245.232,219.387 "
       id="polygon18" /><rect
       x="162.396"
       y="205.786"
       transform="matrix(0.7071,0.7071,-0.7071,0.7071,199.467,-57.2043)"
       width="12.778"
       height="12.78"
       id="rect20" /><path
       d="m 12.576,223.35 c 0,-1.477 3.227,-1.94 3.227,0 0,3.595 1.683,11.201 11.181,11.201 9.498,0 10.396,-6.774 10.396,-9.083 0,-10.326 -23.88,-7.839 -23.88,-23.704 0,-11.241 10.028,-15.068 17.728,-15.068 6.729,0 9.748,1.61 10.579,2.255 0.832,0.648 0.921,1.196 0.921,1.849 v 8.578 c 0,1.191 -1.845,2.116 -2.576,0 -0.739,-2.123 -3.231,-9.599 -8.946,-9.599 -6.46,0 -8.759,4.523 -8.759,7.292 0,10.418 23.788,6.358 23.788,23.512 0,9.772 -9.039,17.239 -19.273,17.239 -10.238,0 -13.558,-4.168 -14.385,-5.092 v -9.38 z"
       id="path22"
       inkscape:connector-curvature="0" /><path
       d="m 144.441,223.936 c 0.74,-1.476 2.487,-1.2 2.487,0.731 v 6.091 c 0,0.276 0,0.829 -0.455,1.195 -0.465,0.368 -6,5.168 -15.034,5.168 -13.369,0 -28.586,-7.839 -28.586,-24.717 0,-14.844 15.633,-24.158 28.91,-24.158 3.872,0 10.927,1.563 12.219,2.114 1.291,0.556 1.472,1.107 1.567,1.805 0.092,0.688 0.643,5.119 0.827,6.222 0.188,1.108 -1.563,2.498 -2.768,0.369 -1.195,-2.12 -4.055,-7.375 -11.89,-7.375 -7.839,0 -16.509,5.995 -16.509,21.209 0,15.217 9.405,21.392 16.229,21.392 4.522,-0.001 10.052,-2.029 13.003,-10.046"
       id="path24"
       inkscape:connector-curvature="0" /><path
       d="m 448.199,189.139 23.818,29.512 v -23.748 c 0,-1.888 -1.801,-2.496 -2.816,-2.496 h -2.299 c -1.896,0 -1.896,-3.268 0,-3.268 h 14.289 c 1.893,0 1.893,3.268 0,3.268 h -2.305 c -1.016,0 -2.811,0.608 -2.811,2.496 v 40.892 c 0,0.369 -0.139,0.828 -0.832,0.828 h -3.596 c -0.275,0 -0.508,-0.091 -0.783,-0.363 -0.281,-0.28 -30.572,-38.173 -30.572,-38.173 v 31.346 c 0,1.896 1.801,2.492 2.811,2.492 h 2.309 c 1.893,0 1.893,3.271 0,3.271 h -14.293 c -1.893,0 -1.893,-3.271 0,-3.271 h 2.305 c 1.014,0 2.811,-0.596 2.811,-2.492 v -33.79 c 0,-2.168 -1.703,-3.235 -3.184,-3.235 h -1.932 c -1.893,0 -1.893,-3.268 0,-3.268 h 17.08 z"
       id="path26"
       inkscape:connector-curvature="0" /><path
       d="m 67.114,189.139 23.81,29.512 v -23.748 c 0,-1.888 -1.791,-2.496 -2.812,-2.496 h -2.304 c -1.891,0 -1.891,-3.268 0,-3.268 h 14.29 c 1.896,0 1.896,3.268 0,3.268 H 97.8 c -1.012,0 -2.815,0.608 -2.815,2.496 v 40.892 c 0,0.369 -0.142,0.828 -0.829,0.828 h -3.6 c -0.275,0 -0.503,-0.091 -0.783,-0.363 -0.272,-0.28 -30.566,-38.173 -30.566,-38.173 v 31.346 c 0,1.896 1.795,2.492 2.811,2.492 h 2.308 c 1.888,0 1.888,3.271 0,3.271 h -14.3 c -1.892,0 -1.892,-3.271 0,-3.271 h 2.313 c 1.012,0 2.812,-0.596 2.812,-2.492 v -33.79 c 0,-2.168 -1.708,-3.235 -3.18,-3.235 h -1.944 c -1.892,0 -1.892,-3.268 0,-3.268 h 17.087 z"
       id="path28"
       inkscape:connector-curvature="0" /><path
       d="m 214.145,232.899 c 1.817,0 7.549,-0.03 11.412,-8.027 0.661,-1.804 3.451,-1.4 3.135,0.457 l -1.457,8.622 c -0.131,0.67 -0.587,1.243 -1.384,1.243 h -34.578 c -1.892,0 -1.892,-3.271 0,-3.271 h 2.309 c 1.01,0 2.812,-0.596 2.812,-2.492 v -34.529 c 0,-1.888 -1.802,-2.496 -2.812,-2.496 h -2.309 c -1.892,0 -1.892,-3.268 0,-3.268 h 22.221 c 1.89,0 1.89,3.268 0,3.268 h -2.304 c -1.013,0 -2.816,0.608 -2.816,2.496 v 32.689 c -0.001,4.25 2.47,5.308 5.771,5.308"
       id="path30"
       inkscape:connector-curvature="0" /><path
       d="m 385.813,232.899 c 1.818,0 7.553,-0.03 11.42,-8.027 0.656,-1.804 3.447,-1.4 3.127,0.457 l -1.453,8.622 c -0.133,0.67 -0.586,1.243 -1.387,1.243 h -34.574 c -1.893,0 -1.893,-3.271 0,-3.271 h 2.301 c 1.018,0 2.816,-0.596 2.816,-2.492 v -34.529 c 0,-1.888 -1.799,-2.496 -2.816,-2.496 h -2.301 c -1.893,0 -1.893,-3.268 0,-3.268 h 22.219 c 1.887,0 1.887,3.268 0,3.268 h -2.303 c -1.018,0 -2.811,0.608 -2.811,2.496 v 32.689 c 0,4.25 2.469,5.308 5.762,5.308"
       id="path32"
       inkscape:connector-curvature="0" /><polygon
       points="103.878,82.931 136.327,115.38 168.781,82.931 136.327,50.485 "
       id="polygon34"
       style="fill:#00537b" /><path
       d="m 143.018,131.925 c 5.085,3.67 10.783,6.604 16.87,8.574 21.37,-12.35 42.478,-38.409 42.478,-57.332 0,-19.189 -21.765,-45.767 -43.442,-57.893 -5.973,2.05 -11.552,4.979 -16.518,8.676 15.389,6.174 45.631,37.569 45.631,49.099 -0.001,11.39 -29.459,42.172 -45.019,48.876"
       id="path36"
       inkscape:connector-curvature="0"
       style="fill:#00537b" /><path
       d="m 183.442,22.179 c 31.323,2.417 55.887,28.578 55.887,60.524 0,31.312 -23.743,57.104 -54.184,60.38 18.446,-15.271 31.547,-37.81 31.547,-59.806 0,-22.605 -13.985,-45.824 -33.25,-61.098"
       id="path38"
       inkscape:connector-curvature="0"
       style="fill:#00537b" /></g></svg>